<?xml version="1.0" encoding="utf-8"?>
<!-- Generator: Adobe Illustrator 19.0.0, SVG Export Plug-In . SVG Version: 6.00 Build 0)  -->
<svg version="1.1" id="Layer_1" xmlns="http://www.w3.org/2000/svg" xmlns:xlink="http://www.w3.org/1999/xlink" x="0px" y="0px"
	 viewBox="0 0 500 500" style="enable-background:new 0 0 500 500;" xml:space="preserve">
<style type="text/css">
	.st0{clip-path:url(#SVGID_2_);fill:#78BDE8;}
	.st1{clip-path:url(#SVGID_2_);fill:#0078C1;}
	.st2{fill:#003768;}
	.st3{fill:#78BDE8;}
</style>
<g>
	<g>
		<defs>
			<rect id="SVGID_1_" x="67.5" y="159.7" width="365" height="180.6"/>
		</defs>
		<clipPath id="SVGID_2_">
			<use xlink:href="#SVGID_1_"  style="overflow:visible;"/>
		</clipPath>
		<path class="st0" d="M282.7,182.1c-4.9-4.9-10.3-8.6-15.9-11.6c-9.9-5.7-21.6-9-34.5-9.5c-0.9,0-1.8-0.1-2.5-0.1h-5h-78.6v175.7
			H195v0h0v-37.8c5,0,35.9,0,35.9,0c11.3,0,21.9-2.5,31.3-7c-6.6-12.5-10.3-26.8-10.3-41.9C251.9,223,263.9,198.7,282.7,182.1
			 M229.1,257.9c-0.7,0-1.4,0-2.1,0h-32v-56.1H226l0,0c13.4,0,27.3,8.3,27.3,27.9C253.3,248.9,242.3,256.9,229.1,257.9"/>
		<path class="st1" d="M432.3,244.5c-0.1-2.4-0.4-4.7-0.7-7.1c-0.2-1.4-0.3-2.2-0.3-2.2h0l0,0h-61l-19.3,0v0h-5.6v40.9h30.9
			c-7.9,10.3-20.2,17-34.2,17c-23.7,0-43-19.3-43-43c0-23.7,19.3-43,43-43c10.2,0,19.5,3.6,26.9,9.5l0.2,0.1l36-31.1
			c-16.3-15.9-38.6-25.8-63.1-25.8c-22.8,0-43.5,8.5-59.4,22.4c9.9,9.9,17.3,24.2,17.9,45c0,0.8,0.1,1.6,0.1,2.4l0,0.2v0
			c0,0.5,0,0.9,0,1.4c0,26.9-15.5,49.7-38.5,60.7c15.1,28.7,45.3,48.4,79.9,48.4c34.6,0,64.7-19.6,79.9-48.3l0,0.1
			c1.2-2.2,2.3-4.5,3.2-6.9c4.2-9.9,6.7-20.8,7.1-32.1c0.1-1.3,0.1-2.4,0.1-3.2C432.5,248.2,432.4,246.3,432.3,244.5"/>
	</g>
	<path class="st2" d="M300.7,231.2c0-0.5,0-0.9,0-1.4v0l0-0.2c0-0.8,0-1.6-0.1-2.4c-0.6-20.7-8-35.1-17.9-45
		c-18.9,16.6-30.8,40.8-30.8,67.9c0,15.1,3.8,29.4,10.3,41.9C285.2,280.9,300.7,258.2,300.7,231.2"/>
	<polygon class="st3" points="67.5,161.4 67.7,336.7 116.1,336.7 115.9,161.4 	"/>
</g>
</svg>
